<?xml version="1.0" standalone="no"?>
<!DOCTYPE svg PUBLIC "-//W3C//DTD SVG 20010904//EN"
 "http://www.w3.org/TR/2001/REC-SVG-20010904/DTD/svg10.dtd">
<svg version="1.0" xmlns="http://www.w3.org/2000/svg"
 width="700.000000pt" height="700.000000pt" viewBox="0 0 700.000000 700.000000"
 preserveAspectRatio="xMidYMid meet">
<metadata>
Created by potrace 1.11, written by Peter Selinger 2001-2013
</metadata>
<g transform="translate(0.000000,700.000000) scale(0.100000,-0.100000)"
fill="#000000" stroke="none">
<path d="M1750 6562 c-320 -22 -533 -83 -790 -225 -176 -97 -356 -245 -504
-417 -100 -116 -230 -330 -304 -500 -50 -115 -102 -289 -117 -390 -4 -25 -8
-47 -10 -50 -9 -15 -19 -172 -19 -315 -1 -193 5 -255 38 -420 16 -79 39 -160
61 -220 15 -39 30 -81 35 -95 37 -115 149 -312 262 -460 74 -99 113 -139 743
-788 88 -91 185 -191 215 -222 30 -32 123 -127 205 -212 83 -85 259 -267 392
-404 133 -137 276 -285 318 -329 43 -44 184 -190 314 -324 130 -134 271 -280
314 -325 255 -265 347 -352 400 -379 126 -63 273 -62 395 3 57 30 154 122 379
356 72 76 440 457 583 604 47 48 191 196 320 330 129 134 262 271 295 305 137
140 568 585 635 655 40 41 179 185 309 319 130 134 245 254 256 265 150 156
305 402 386 611 34 86 76 222 85 269 3 16 6 32 8 35 2 3 7 24 10 46 4 22 9 54
12 70 21 117 26 434 10 545 -3 19 -8 53 -11 75 -24 164 -89 368 -171 541 -124
259 -302 479 -551 684 -6 5 -51 36 -100 69 -236 159 -527 261 -823 287 -79 7
-284 7 -325 0 -17 -3 -54 -8 -84 -11 -46 -5 -84 -12 -211 -40 -160 -34 -420
-148 -588 -258 -158 -102 -215 -152 -448 -388 l-174 -175 -128 129 c-239 244
-331 327 -461 413 -31 20 -67 44 -81 54 -86 56 -353 176 -447 199 -21 5 -63
17 -93 25 -128 37 -412 68 -540 58z"/>
</g>
</svg>
